<?xml version="1.0" standalone="no"?>
<!DOCTYPE svg PUBLIC "-//W3C//DTD SVG 20010904//EN"
 "http://www.w3.org/TR/2001/REC-SVG-20010904/DTD/svg10.dtd">
<svg version="1.0" xmlns="http://www.w3.org/2000/svg"
 width="398.000000pt" height="398.000000pt" viewBox="0 0 398.000000 398.000000"
 preserveAspectRatio="xMidYMid meet">
<metadata>
Created by potrace 1.11, written by Peter Selinger 2001-2013
</metadata>
<g transform="translate(0.000000,398.000000) scale(0.100000,-0.100000)"
fill="#000000" stroke="none">
<path d="M1745 3574 c-123 -21 -269 -70 -390 -130 -423 -208 -728 -614 -837
-1114 -20 -93 -23 -132 -23 -340 0 -208 3 -247 23 -340 143 -657 622 -1140
1231 -1244 124 -21 358 -21 482 0 609 104 1088 587 1231 1244 20 93 23 132 23
340 0 208 -3 247 -23 340 -143 656 -622 1140 -1231 1244 -117 20 -373 20 -486
0z m1128 -431 c2 -5 -2 -57 -9 -118 -8 -60 -19 -156 -26 -212 l-12 -103 -587
0 -588 0 -6 -47 c-3 -27 -10 -77 -15 -113 -6 -36 -28 -213 -50 -395 -22 -181
-46 -377 -55 -435 -8 -58 -17 -130 -20 -160 -4 -30 -11 -72 -16 -93 l-10 -38
-109 57 c-59 31 -122 68 -139 83 l-31 26 20 175 c30 273 73 631 105 875 8 61
20 157 26 215 15 139 50 219 117 261 l46 29 677 0 c373 0 680 -3 682 -7z
m-247 -947 c3 -7 0 -51 -6 -97 -18 -130 -39 -303 -40 -317 0 -10 -98 -12 -472
-10 l-473 3 1 40 c0 36 25 257 40 358 l6 37 469 0 c385 0 471 -2 475 -14z"/>
</g>
</svg>
